<?xml version="1.0" encoding="UTF-8" standalone="no"?>
<svg width="474" height="177" viewBox="0 0 474 177" fill="none" xmlns="http://www.w3.org/2000/svg">
<g clip-path="url(#clip0_5_2)">
<path d="M439.504 45.1993L409.129 100.544L404.753 111.709H402.241L401.987 100.544L390.723 45.1993H356.396L359.417 56.5062C357.977 54.2392 355.973 52.1138 353.517 50.1585C345.528 43.6407 334.236 40.4385 319.868 40.4385C305.499 40.4385 293.53 43.8108 283.169 50.5836C274.842 56.0812 268.603 62.7406 264.651 70.7037L276.987 0H243.648L235.744 45.1993L239.95 67.8415L234.474 69.8818C233.796 63.3641 232.046 57.8098 229.167 53.2474C223.605 44.4625 214.6 39.9851 202.066 39.9851C196.674 39.9851 191.537 40.7502 186.653 42.3372C179.68 44.5476 173.188 48.3449 167.118 53.6724C161.896 58.2349 157.605 63.7325 154.33 70.1369C158.028 48.5149 153.822 31.3703 141.542 18.8449C129.46 6.43276 112.551 0.170029 90.9271 0H90.1649C66.7628 0 47.0869 6.17771 31.1655 18.4198C15.1876 30.7469 5.25088 48.0615 1.46814 70.4486C-2.39929 92.8357 1.38345 110.32 12.901 122.732C24.4186 135.23 41.8644 141.492 65.2384 141.492C66.6781 141.492 68.0895 141.492 69.5292 141.407C91.153 140.727 109.417 134.493 124.492 122.732C134.175 115.223 141.655 105.843 146.878 94.5927C145.015 108.45 147.217 119.587 153.371 127.975C159.694 136.59 169.123 141.067 181.487 141.407C182.08 141.492 182.673 141.492 183.266 141.492C196.223 141.492 207.091 137.1 215.842 128.315C220.302 123.838 224.001 118.425 226.965 112.021L231.425 114.061L219.738 136.788H253.077L255.335 123.866C256.182 127.663 258.017 131.036 260.896 133.926C265.949 139.084 273.091 141.606 282.181 141.606C294.885 141.606 305.753 137.978 314.758 130.781C320.912 125.793 325.457 119.785 328.393 112.616L332.599 114.883L320.658 136.76H352.049L363.171 74.0759C363.341 73.1407 363.426 72.2056 363.51 71.2988L381.267 136.76L377.145 143.533C375.621 145.715 373.786 147.16 371.415 148.01C369.156 148.945 365.938 149.37 361.816 149.37H345.161L340.447 177H370.144C377.964 177 385.303 174.96 392.276 170.822C399.164 166.77 404.979 160.762 409.609 152.913L474.085 45.1993H439.589H439.504ZM123.758 73.7642C121.895 84.5043 117.604 92.7791 110.801 98.5884C103.997 104.426 95.3874 107.373 85.0554 107.373C81.2727 107.373 77.9134 106.948 74.8646 106.098C72.6627 105.588 70.8278 104.823 69.0493 103.888H68.9646C66.4522 102.527 64.2503 100.77 62.4719 98.56C57.7576 92.7224 56.3179 84.4477 58.181 73.7358C60.0442 62.9957 64.335 54.806 71.0536 49.0533C74.921 45.7661 79.466 43.3857 84.6037 41.9688C88.3018 40.9486 92.2539 40.4385 96.6295 40.4385C97.7304 40.4385 98.7467 40.4385 99.7347 40.6086C108.486 41.0336 114.979 43.8958 119.354 49.1383C122.713 53.3607 124.492 58.7733 124.492 65.5178C124.492 68.0399 124.238 70.7603 123.73 73.7075L123.758 73.7642ZM228.094 88.8684L227.84 90.6537C227.67 91.6739 227.416 92.609 227.247 93.6009C226.993 94.621 226.654 95.5562 226.315 96.463C225.977 97.6532 225.468 98.8151 224.96 99.9203C224.452 101.025 223.944 102.131 223.267 103.037C223.182 103.207 223.097 103.378 223.013 103.463C221.658 105.673 219.992 107.515 218.129 109.13C212.991 113.523 206.611 115.733 198.848 115.733C191.875 115.733 186.568 113.863 183.04 110.235C182.701 109.895 182.362 109.555 182.023 109.13C179.088 105.418 177.817 100.43 178.41 93.9976C178.495 92.8924 178.664 91.7872 178.833 90.6254C179.003 89.6902 179.172 88.8401 179.426 87.9332C179.596 86.9981 179.85 86.1479 180.189 85.3261C180.443 84.476 180.697 83.5408 181.12 82.804C182.136 80.2819 183.378 78.0716 184.903 76.1162C186.004 74.671 187.161 73.4241 188.516 72.2339C193.485 67.9265 199.864 65.8012 207.543 65.8012C215.221 65.8012 220.924 67.9265 224.537 72.3189C225.892 74.0192 226.88 75.9462 227.473 78.1566C227.727 78.8367 227.896 79.5168 227.981 80.2819C228.066 80.622 228.15 80.9621 228.15 81.3021C228.489 83.5692 228.404 86.1196 228.066 88.8967L228.094 88.8684ZM326.812 101.961V102.131C326.05 105.758 323.199 108.733 318.315 111C313.347 113.353 307.193 114.458 299.796 114.458C295.844 114.458 292.739 113.863 290.537 112.672C288.42 111.482 287.517 109.725 287.94 107.345C288.279 105.134 292.231 103.293 299.627 101.762L327.744 95.9246L331.103 76.9947L291.638 85.0144C280.855 87.1398 272.442 90.512 266.486 95.2445C263.127 97.8516 260.501 101.082 258.666 104.709L263.55 76.5697L292.259 80.367C293.614 76.5696 296.296 73.4525 300.248 71.072C304.2 68.635 308.999 67.4448 314.73 67.4448C320.122 67.4448 324.328 68.2949 327.433 69.8818C330.454 71.4121 331.809 73.5941 331.385 76.2296L326.84 101.904L326.812 101.961Z" fill="white"/>
</g>
<defs>
<clipPath id="clip0_5_2">
<rect width="474" height="177" fill="white"/>
</clipPath>
</defs>
</svg>